<svg xmlns="http://www.w3.org/2000/svg" width="1200" height="400" viewBox="0 0 1200 400" fill="none"><path fill-rule="evenodd" clip-rule="evenodd" d="M1285.83 -396.995C1383.78 -396.634 1489.1 -378.635 1547.83 -300.246C1605.11 -223.801 1596.99 -117.17 1562.1 -28.2499C1532.95 46.0416 1455.31 76.8727 1385.03 114.689C1307.86 156.219 1232.3 219.172 1148.21 194.471C1050.73 165.837 972.164 84.4605 947.03 -13.977C921.206 -115.117 952.235 -224 1021.4 -302.187C1086.67 -375.978 1187.31 -397.359 1285.83 -396.995Z" fill="#66D7D1"></path><path fill-rule="evenodd" clip-rule="evenodd" d="M959.831 288.005C1057.78 288.366 1163.1 306.365 1221.83 384.754C1279.11 461.199 1270.99 567.83 1236.1 656.75C1206.95 731.042 1129.31 761.873 1059.03 799.689C981.858 841.219 906.296 904.172 822.208 879.471C724.731 850.837 646.164 769.46 621.03 671.023C595.206 569.883 626.235 461 695.395 382.813C760.668 309.022 861.314 287.641 959.831 288.005Z" fill="#FFD455"></path><path fill-rule="evenodd" clip-rule="evenodd" d="M-52.1687 -244.995C45.779 -244.634 151.105 -226.635 209.834 -148.246C267.107 -71.8013 258.987 34.8297 224.099 123.75C194.951 198.042 117.31 228.873 47.0336 266.689C-30.1425 308.219 -105.704 371.172 -189.792 346.471C-287.269 317.837 -365.836 236.46 -390.97 138.023C-416.794 36.8828 -385.765 -72.0003 -316.605 -150.187C-251.332 -223.978 -150.686 -245.359 -52.1687 -244.995Z" fill="#6369D1"></path></svg>