<svg xmlns="http://www.w3.org/2000/svg" width="873" height="1000" viewBox="0 0 873 1000" fill="none"><path fill-rule="evenodd" clip-rule="evenodd" d="M0.285266 374.056C-6.88044 202.603 122.095 63.6555 256.827 -42.5756C390.374 -147.873 552.139 -228.824 718.143 -191.948C885.118 -154.857 1001.16 -14.3791 1076.1 139.414C1151.58 294.31 1182.44 469.088 1118.16 628.959C1048.27 802.804 916.581 970.357 731.196 997.266C555.512 1022.77 425.019 864.376 289.918 749.182C163.452 641.351 7.22629 540.133 0.285266 374.056Z" fill="#6369D1"></path><path fill-rule="evenodd" clip-rule="evenodd" d="M336.787 220.157C378.413 103.889 486.116 31.8189 601.6 -12.0062C708.949 -52.744 834.169 -69.3884 928.947 -4.56155C1015.86 54.889 1000.14 177.372 1027.22 279.113C1059.42 400.094 1178.52 533.565 1097.59 629.083C1016.67 724.596 865.89 621.503 740.749 617.246C614.514 612.953 470.876 693.242 380.805 604.703C283.983 509.528 291.035 347.948 336.787 220.157Z" fill="#66D7D1"></path><path fill-rule="evenodd" clip-rule="evenodd" d="M1234.22 -297.935C1335.76 -227.635 1377.49 -104.949 1389.94 17.9428C1401.5 132.178 1385.17 257.438 1298.02 332.208C1218.1 400.778 1103.86 353.891 998.578 353.714C873.386 353.505 713.638 434 642.32 331.11C571.005 228.227 709.611 109.264 746.111 -10.5123C782.931 -131.335 742.553 -290.859 851.387 -354.945C968.379 -423.835 1122.63 -375.203 1234.22 -297.935Z" fill="#FFD455"></path></svg>