<svg xmlns="http://www.w3.org/2000/svg" width="115" height="64" viewBox="0 0 115 64" fill="none"><path d="M29.9235 26.4896H31.2035V35.3984H35.0435V36.6784H29.9235V26.4896ZM39.0307 26.4896C39.7901 26.4896 40.5326 26.7148 41.1641 27.1367C41.7955 27.5587 42.2877 28.1584 42.5784 28.8601C42.869 29.5617 42.945 30.3338 42.7969 31.0787C42.6487 31.8236 42.283 32.5078 41.746 33.0449C41.2089 33.5819 40.5247 33.9476 39.7798 34.0958C39.0349 34.244 38.2628 34.1679 37.5612 33.8773C36.8595 33.5866 36.2598 33.0944 35.8378 32.463C35.4159 31.8315 35.1907 31.0891 35.1907 30.3296C35.1907 29.8253 35.29 29.326 35.483 28.8601C35.6759 28.3942 35.9588 27.9709 36.3154 27.6143C36.6719 27.2577 37.0953 26.9749 37.5612 26.7819C38.027 26.5889 38.5264 26.4896 39.0307 26.4896ZM39.0307 32.8896C39.537 32.8896 40.0319 32.7394 40.4529 32.4581C40.8739 32.1768 41.202 31.777 41.3958 31.3092C41.5896 30.8415 41.6403 30.3267 41.5415 29.8301C41.4427 29.3335 41.1989 28.8774 40.8409 28.5194C40.4828 28.1614 40.0267 27.9175 39.5301 27.8188C39.0335 27.72 38.5188 27.7707 38.051 27.9644C37.5832 28.1582 37.1834 28.4863 36.9021 28.9073C36.6208 29.3283 36.4707 29.8233 36.4707 30.3296C36.474 31.0063 36.7453 31.6542 37.225 32.1315C37.7047 32.6088 38.3539 32.8768 39.0307 32.8768V32.8896ZM36.4707 35.4112H41.5907V36.6912H36.4707V35.4112ZM52.8547 36.6912H51.5747V35.776C50.7492 36.3538 49.7663 36.6643 48.7587 36.6656C47.8995 36.6713 47.0526 36.4607 46.2962 36.0533C45.5397 35.6458 44.898 35.0545 44.4301 34.3338C43.9622 33.6132 43.6832 32.7863 43.6188 31.9295C43.5544 31.0727 43.7066 30.2135 44.0615 29.431C44.4164 28.6485 44.9625 27.9679 45.6495 27.4519C46.3365 26.9358 47.1423 26.601 47.9927 26.4782C48.8431 26.3555 49.7108 26.4487 50.5157 26.7493C51.3206 27.0499 52.0369 27.5482 52.5987 28.1984L51.6579 29.0368C51.2306 28.5591 50.6906 28.196 50.0871 27.9804C49.4835 27.7649 48.8357 27.7039 48.2025 27.8029C47.5693 27.9019 46.971 28.1578 46.462 28.5472C45.9531 28.9367 45.5497 29.4474 45.2887 30.0327C45.0277 30.6179 44.9172 31.2593 44.9675 31.8981C45.0178 32.537 45.2272 33.1532 45.5766 33.6904C45.9261 34.2276 46.4044 34.6689 46.968 34.9739C47.5316 35.2789 48.1626 35.4381 48.8035 35.4368C49.3353 35.4379 49.8611 35.3241 50.345 35.1032C50.8288 34.8822 51.2592 34.5594 51.6067 34.1568H48.1507V32.8768H52.8675L52.8547 36.6912ZM57.5651 26.5152C58.3245 26.5152 59.067 26.7404 59.6984 27.1623C60.3299 27.5843 60.8221 28.184 61.1128 28.8857C61.4034 29.5873 61.4794 30.3594 61.3313 31.1043C61.1831 31.8492 60.8174 32.5334 60.2804 33.0705C59.7433 33.6075 59.0591 33.9732 58.3142 34.1214C57.5693 34.2696 56.7972 34.1935 56.0956 33.9029C55.3939 33.6122 54.7942 33.12 54.3722 32.4886C53.9503 31.8571 53.7251 31.1147 53.7251 30.3552C53.7217 29.8477 53.8189 29.3445 54.0112 28.8748C54.2035 28.4051 54.4869 27.9782 54.8452 27.6188C55.2035 27.2593 55.6294 26.9744 56.0985 26.7806C56.5675 26.5868 57.0704 26.4879 57.5779 26.4896L57.5651 26.5152ZM57.5651 32.9152C58.0714 32.9152 58.5663 32.765 58.9873 32.4837C59.4083 32.2024 59.7364 31.8026 59.9302 31.3348C60.124 30.8671 60.1746 30.3523 60.0759 29.8557C59.9771 29.3592 59.7333 28.903 59.3753 28.545C59.0172 28.187 58.5611 27.9431 58.0645 27.8444C57.5679 27.7456 57.0532 27.7963 56.5854 27.99C56.1176 28.1838 55.7178 28.5119 55.4365 28.9329C55.1552 29.3539 55.0051 29.8489 55.0051 30.3552C55.0152 31.0297 55.2911 31.6729 55.7729 32.1451C56.2546 32.6173 56.9033 32.8802 57.5779 32.8768L57.5651 32.9152ZM55.0051 35.4368H60.1251V36.7168H55.0051V35.4368ZM62.7683 26.4896H64.0483V36.6656H62.7683V26.4896ZM65.8211 26.4896H67.1011C67.167 26.4826 67.2335 26.4826 67.2995 26.4896C67.8355 26.4314 68.3778 26.4868 68.8911 26.6522C69.4043 26.8175 69.877 27.0891 70.2783 27.4492C70.6796 27.8093 71.0006 28.25 71.2203 28.7424C71.4401 29.2348 71.5536 29.768 71.5536 30.3072C71.5536 30.8464 71.4401 31.3796 71.2203 31.872C71.0006 32.3644 70.6796 32.805 70.2783 33.1651C69.877 33.5253 69.4043 33.7969 68.8911 33.9622C68.3778 34.1275 67.8355 34.1829 67.2995 34.1248H67.1011V36.6848H65.8211V26.4896ZM67.1011 27.7696V32.832H67.2995C67.661 32.8801 68.0286 32.8504 68.3778 32.745C68.7269 32.6395 69.0495 32.4606 69.3239 32.2203C69.5983 31.9801 69.8181 31.6839 69.9688 31.3518C70.1194 31.0196 70.1974 30.6591 70.1974 30.2944C70.1974 29.9296 70.1194 29.5691 69.9688 29.237C69.8181 28.9048 69.5983 28.6087 69.3239 28.3684C69.0495 28.1281 68.7269 27.9493 68.3778 27.8438C68.0286 27.7383 67.661 27.7086 67.2995 27.7568C67.2297 27.764 67.161 27.7791 67.0947 27.8016L67.1011 27.7696ZM76.3235 27.2256L75.3763 27.9744C75.2128 27.8036 75.0041 27.6831 74.7745 27.6269C74.5449 27.5707 74.3041 27.5811 74.0803 27.6571C73.8565 27.733 73.659 27.8713 73.511 28.0556C73.3631 28.2399 73.2708 28.4626 73.2451 28.6976V28.8C73.2451 29.3632 73.6355 29.7408 74.3971 29.792C77.3283 29.9712 78.6723 31.3472 78.6723 33.1648V33.28C78.5966 33.9994 78.3159 34.6819 77.8635 35.2463C77.4111 35.8108 76.8062 36.2334 76.1206 36.464C75.4349 36.6945 74.6975 36.7233 73.996 36.5469C73.2945 36.3705 72.6584 35.9962 72.1635 35.4688L73.1427 34.7136C73.3706 34.9578 73.6489 35.1496 73.9584 35.2756C74.2678 35.4016 74.6009 35.4588 74.9347 35.4432C75.5511 35.4757 76.1562 35.2688 76.6237 34.8657C77.0912 34.4626 77.3849 33.8945 77.4435 33.28V33.1904C77.4435 31.4816 75.7667 31.168 74.3139 31.0272C72.9699 30.8992 72.0035 30.0608 72.0035 28.8512V28.8C72.0509 28.1702 72.3382 27.5827 72.8063 27.1587C73.2743 26.7348 73.8873 26.5067 74.5187 26.5216C74.8532 26.5117 75.1861 26.5721 75.4959 26.6989C75.8057 26.8256 76.0854 27.016 76.3171 27.2576L76.3235 27.2256ZM83.6835 35.3664C85.2771 35.3664 86.5379 33.6448 86.5379 31.5264V26.4064H87.8179V31.5264C87.8179 34.3424 85.9747 36.6144 83.7091 36.6144C81.4435 36.6144 79.6003 34.3424 79.6003 31.5264V26.4064H80.8803V31.5264C80.8291 33.6768 82.0899 35.3984 83.6771 35.3984L83.6835 35.3664ZM97.6419 36.6464H96.3619V30.3104L93.4115 34.1504L90.4611 30.3104V36.6656H89.1811V26.4896L93.4051 32.0512L97.6291 26.4896L97.6419 36.6464Z" fill="#76778B"></path><path d="M23.7795 24.96C23.7795 24.0366 23.4127 23.1511 22.7597 22.4981C22.1068 21.8452 21.2213 21.4784 20.2979 21.4784C19.3745 21.4784 18.4889 21.8452 17.836 22.4981C17.1831 23.1511 16.8163 24.0366 16.8163 24.96V35.488L19.6835 37.5424V42.5472H20.9123V37.5424L23.7795 35.488V24.96ZM22.5507 30.848L20.9123 32.4864V30.9504L22.5507 29.312V30.848ZM18.0707 29.312L19.7091 30.9504V32.4864L18.0707 30.848V29.312ZM22.5507 27.5712L20.2979 29.824L18.0451 27.52V25.984L20.2979 28.2368L22.5507 25.984V27.5712ZM20.2979 22.7072C20.7933 22.7094 21.2744 22.8739 21.6674 23.1756C22.0604 23.4773 22.3437 23.8995 22.4739 24.3776L20.2979 26.5472L18.1219 24.3776C18.2473 23.8948 18.5285 23.4668 18.922 23.1602C19.3154 22.8535 19.7991 22.6853 20.2979 22.6816V22.7072ZM18.0451 34.8672V32.5632L19.6835 34.2016V36.032L18.0451 34.8672ZM20.9123 36.0384V34.2016L22.5507 32.5632V34.8608L20.9123 36.0384Z" fill="#76778B"></path></svg>