<svg xmlns="http://www.w3.org/2000/svg" width="115" height="64" viewBox="0 0 115 64" fill="none"><path d="M25.3827 35.0656H27.3027V44.48H25.3827V35.0656Z" fill="#76778B"></path><path d="M28.4163 41.2544C28.415 40.5782 28.6144 39.9168 28.9891 39.3539C29.3639 38.7911 29.8972 38.352 30.5216 38.0924C31.146 37.8327 31.8333 37.7641 32.4967 37.8953C33.1601 38.0264 33.7696 38.3514 34.2482 38.8291C34.7268 39.3068 35.053 39.9158 35.1853 40.5789C35.3177 41.242 35.2504 41.9295 34.9919 42.5544C34.7335 43.1792 34.2954 43.7134 33.7333 44.0892C33.1711 44.465 32.5101 44.6656 31.8339 44.6656C31.3842 44.6707 30.938 44.586 30.5215 44.4165C30.1049 44.247 29.7264 43.996 29.4081 43.6783C29.0898 43.3606 28.8381 42.9826 28.6678 42.5663C28.4975 42.1501 28.412 41.7041 28.4163 41.2544ZM33.3187 41.2544C33.3111 40.9625 33.2177 40.6793 33.05 40.4402C32.8823 40.2011 32.6479 40.0168 32.376 39.9103C32.1041 39.8038 31.8068 39.7798 31.5214 39.8413C31.2359 39.9029 30.975 40.0473 30.7712 40.2564C30.5673 40.4655 30.4297 40.73 30.3754 41.0169C30.3212 41.3039 30.3527 41.6004 30.4662 41.8695C30.5796 42.1386 30.7698 42.3682 31.0131 42.5298C31.2564 42.6913 31.5419 42.7775 31.8339 42.7776C32.0337 42.7832 32.2325 42.7473 32.4177 42.6722C32.6029 42.5971 32.7706 42.4845 32.9101 42.3414C33.0496 42.1982 33.1579 42.0278 33.2283 41.8407C33.2986 41.6536 33.3294 41.454 33.3187 41.2544Z" fill="#76778B"></path><path d="M42.97 38.0288V44.16C42.97 46.3296 41.274 47.2448 39.5588 47.2448C38.9556 47.2897 38.3518 47.1677 37.8133 46.8923C37.2749 46.6168 36.8226 46.1986 36.506 45.6832L38.1572 44.7296C38.2882 44.9937 38.4955 45.2124 38.7523 45.3573C39.009 45.5022 39.3034 45.5667 39.5972 45.5424C39.7905 45.5747 39.9887 45.562 40.1764 45.5056C40.3641 45.4491 40.5364 45.3502 40.6798 45.2167C40.8233 45.0831 40.9342 44.9184 41.0039 44.7352C41.0736 44.552 41.1003 44.3552 41.082 44.16V43.5648C40.8562 43.8425 40.5682 44.0632 40.2413 44.2088C39.9144 44.3545 39.5578 44.4211 39.2004 44.4032C38.3313 44.4032 37.4979 44.058 36.8833 43.4435C36.2688 42.829 35.9236 41.9955 35.9236 41.1264C35.9236 40.2574 36.2688 39.4239 36.8833 38.8094C37.4979 38.1949 38.3313 37.8496 39.2004 37.8496C39.5576 37.8333 39.9137 37.9006 40.2404 38.0461C40.5671 38.1917 40.8552 38.4115 41.082 38.688V38.048L42.97 38.0288ZM41.082 41.1264C41.0947 40.8152 41.0141 40.5072 40.8505 40.2421C40.6868 39.977 40.4476 39.7669 40.1637 39.6389C39.8797 39.5108 39.5639 39.4706 39.2569 39.5234C38.9499 39.5763 38.6657 39.7197 38.4408 39.9354C38.216 40.151 38.0608 40.4289 37.9951 40.7335C37.9295 41.038 37.9565 41.3552 38.0725 41.6443C38.1886 41.9334 38.3885 42.1812 38.6465 42.3557C38.9045 42.5303 39.2089 42.6238 39.5204 42.624C39.7237 42.6384 39.9278 42.61 40.1195 42.5407C40.3112 42.4714 40.4863 42.3627 40.6334 42.2216C40.7805 42.0805 40.8964 41.9102 40.9737 41.7215C41.051 41.5329 41.0879 41.3302 41.082 41.1264Z" fill="#76778B"></path><path d="M44.0772 41.2544C44.0759 40.5782 44.2753 39.9168 44.65 39.3539C45.0248 38.7911 45.5581 38.352 46.1825 38.0924C46.8069 37.8327 47.4942 37.7641 48.1576 37.8953C48.821 38.0264 49.4305 38.3514 49.9091 38.8291C50.3877 39.3068 50.7138 39.9158 50.8462 40.5789C50.9786 41.242 50.9113 41.9295 50.6528 42.5544C50.3944 43.1792 49.9563 43.7134 49.3942 44.0892C48.832 44.465 48.171 44.6656 47.4948 44.6656C47.0451 44.6707 46.5989 44.586 46.1824 44.4165C45.7658 44.247 45.3873 43.996 45.069 43.6783C44.7507 43.3606 44.499 42.9826 44.3287 42.5663C44.1584 42.1501 44.0729 41.7041 44.0772 41.2544ZM48.9796 41.2544C48.972 40.9625 48.8786 40.6793 48.7109 40.4402C48.5432 40.2011 48.3088 40.0168 48.0369 39.9103C47.765 39.8038 47.4677 39.7798 47.1823 39.8413C46.8968 39.9029 46.6359 40.0473 46.432 40.2564C46.2282 40.4655 46.0906 40.73 46.0363 41.0169C45.9821 41.3039 46.0136 41.6004 46.1271 41.8695C46.2405 42.1386 46.4307 42.3682 46.674 42.5298C46.9173 42.6913 47.2028 42.7775 47.4948 42.7776C47.6935 42.7814 47.8909 42.7442 48.0746 42.6683C48.2583 42.5924 48.4244 42.4795 48.5625 42.3366C48.7007 42.1936 48.8078 42.0238 48.8774 41.8376C48.9469 41.6514 48.9774 41.4529 48.9668 41.2544H48.9796Z" fill="#76778B"></path><path d="M51.802 36.3008C51.802 36.0704 51.8703 35.8452 51.9983 35.6537C52.1263 35.4621 52.3082 35.3128 52.5211 35.2247C52.7339 35.1365 52.9681 35.1134 53.194 35.1584C53.42 35.2033 53.6275 35.3142 53.7904 35.4771C53.9533 35.64 54.0643 35.8476 54.1092 36.0735C54.1542 36.2995 54.1311 36.5337 54.0429 36.7465C53.9548 36.9594 53.8055 37.1413 53.6139 37.2693C53.4224 37.3973 53.1972 37.4656 52.9668 37.4656C52.6584 37.4639 52.3631 37.3406 52.145 37.1226C51.9269 36.9045 51.8037 36.6092 51.802 36.3008ZM52.0004 38.0288H53.9204V44.48H52.0004V38.0288Z" fill="#76778B"></path><path d="M62.2916 41.2544C62.3148 41.6809 62.2535 42.1077 62.1112 42.5103C61.9689 42.913 61.7483 43.2835 61.4621 43.6006C61.176 43.9176 60.83 44.1749 60.444 44.3577C60.0581 44.5405 59.6397 44.6452 59.2132 44.6656C58.855 44.6828 58.4975 44.6212 58.1658 44.4852C57.834 44.3492 57.5362 44.1421 57.2932 43.8784V47.0784H55.3732V38.0288H57.2932V38.6368C57.5362 38.3732 57.834 38.166 58.1658 38.03C58.4975 37.894 58.855 37.8324 59.2132 37.8496C59.6392 37.8701 60.0569 37.9745 60.4425 38.1569C60.828 38.3393 61.1737 38.5961 61.4598 38.9124C61.7458 39.2288 61.9665 39.5985 62.1093 40.0005C62.252 40.4024 62.314 40.8285 62.2916 41.2544ZM60.3716 41.2544C60.364 40.954 60.2684 40.6625 60.0968 40.4159C59.9251 40.1692 59.6849 39.9784 59.4058 39.8669C59.1268 39.7554 58.8212 39.7283 58.5269 39.7888C58.2325 39.8492 57.9624 39.9947 57.7499 40.2072C57.5375 40.4197 57.392 40.6898 57.3315 40.9841C57.271 41.2785 57.2982 41.5841 57.4097 41.8631C57.5211 42.1421 57.712 42.3824 57.9586 42.554C58.2052 42.7257 58.4968 42.8212 58.7972 42.8288C59.0068 42.8421 59.2169 42.8105 59.4132 42.7359C59.6096 42.6613 59.7877 42.5455 59.9356 42.3964C60.0836 42.2473 60.1979 42.0682 60.2708 41.8712C60.3438 41.6742 60.3738 41.4639 60.3588 41.2544H60.3716Z" fill="#76778B"></path><path d="M68.2691 42.5472C68.2691 44.032 66.9891 44.6656 65.5811 44.6656C65.0187 44.7154 64.4542 44.5957 63.9603 44.322C63.4664 44.0482 63.0658 43.6329 62.8099 43.1296L64.4867 42.176C64.5548 42.4088 64.7005 42.6113 64.8996 42.7498C65.0987 42.8884 65.3392 42.9546 65.5811 42.9376C66.0483 42.9376 66.2787 42.7904 66.2787 42.5344C66.2787 41.824 63.0787 42.2016 63.0787 39.9744C63.0787 38.5664 64.2691 37.856 65.6387 37.856C66.1441 37.8406 66.6444 37.9607 67.0878 38.2038C67.5312 38.4468 67.9015 38.804 68.1603 39.2384L66.4771 40.1216C66.4028 39.9526 66.281 39.8088 66.1264 39.7077C65.9719 39.6065 65.7914 39.5525 65.6067 39.552C65.2739 39.552 65.0691 39.68 65.0691 39.9168C65.0947 40.6528 68.2691 40.16 68.2691 42.5472Z" fill="#76778B"></path><path d="M75.3347 38.0288V44.48H73.4147V43.8784C73.1913 44.1457 72.9079 44.3564 72.5876 44.4932C72.2672 44.63 71.919 44.6891 71.5715 44.6656C70.2915 44.6656 69.1587 43.7376 69.1587 41.9904V38.0288H71.0787V41.7088C71.0618 41.8656 71.0801 42.0243 71.1321 42.1731C71.1842 42.322 71.2687 42.4575 71.3796 42.5696C71.4906 42.6818 71.6251 42.7678 71.7734 42.8215C71.9217 42.8752 72.0801 42.8952 72.2371 42.88C72.9411 42.88 73.4339 42.4704 73.4339 41.5552V38.0288H75.3347Z" fill="#76778B"></path><path d="M86.4323 40.5248V44.48H84.5123V40.6912C84.5123 40.0512 84.1987 39.6288 83.5843 39.6288C82.9699 39.6288 82.5731 40.0832 82.5731 40.8448V44.48H80.6531V40.6912C80.6531 40.0512 80.3459 39.6288 79.7251 39.6288C79.1043 39.6288 78.7203 40.0832 78.7203 40.8448V44.48H76.8003V38.0288H78.7203V38.624C78.921 38.3611 79.1842 38.1526 79.4859 38.0174C79.7877 37.8821 80.1185 37.8244 80.4483 37.8496C80.7795 37.8335 81.1091 37.9035 81.4052 38.0527C81.7013 38.2018 81.9537 38.4251 82.1379 38.7008C82.3521 38.4126 82.6358 38.1833 82.9626 38.0345C83.2895 37.8856 83.6487 37.822 84.0067 37.8496C85.4659 37.8496 86.4323 38.912 86.4323 40.5248Z" fill="#76778B"></path><path d="M88.0707 37.9904C88.8624 37.9904 89.5043 37.3485 89.5043 36.5568C89.5043 35.765 88.8624 35.1232 88.0707 35.1232C87.2789 35.1232 86.6371 35.765 86.6371 36.5568C86.6371 37.3485 87.2789 37.9904 88.0707 37.9904Z" fill="#76778B"></path><path d="M47.1107 30.1824C50.8185 30.1824 53.8243 27.1766 53.8243 23.4688C53.8243 19.761 50.8185 16.7552 47.1107 16.7552C43.4029 16.7552 40.3971 19.761 40.3971 23.4688C40.3971 27.1766 43.4029 30.1824 47.1107 30.1824Z" fill="#76778B"></path><path d="M62.1188 30.1824C65.8266 30.1824 68.8324 27.1766 68.8324 23.4688C68.8324 19.761 65.8266 16.7552 62.1188 16.7552C58.4109 16.7552 55.4052 19.761 55.4052 23.4688C55.4052 27.1766 58.4109 30.1824 62.1188 30.1824Z" fill="#76778B"></path><path d="M38.8163 16.7552H25.3955V30.176H38.8163V16.7552Z" fill="#76778B"></path></svg>