<svg xmlns="http://www.w3.org/2000/svg" width="114" height="64" viewBox="0 0 114 64" fill="none"><path d="M56.7636 35.4394H53.4868V26.6791H56.7636V35.4394ZM53.8068 35.1194H56.4436V26.9991H53.8068V35.1194ZM61.3229 35.4394H58.112V26.6791H64.8205C65.7816 26.6012 66.7386 26.871 67.5175 27.4394C67.8528 27.7461 68.1126 28.1262 68.2768 28.55C68.441 28.9737 68.5051 29.4297 68.464 29.8823C68.5119 30.6643 68.263 31.4357 67.7671 32.0423C67.1802 32.7155 66.2036 33.0624 64.8647 33.0746C64.5274 33.0835 62 33.0746 61.3248 33.0746L61.3229 35.4394ZM58.4301 35.1194H61.0029V32.7514H61.1636C61.1962 32.7514 64.4775 32.7616 64.857 32.7514C66.1044 32.7405 67.001 32.4314 67.5252 31.8279C67.9666 31.279 68.1859 30.5844 68.1396 29.8816C68.1789 29.4761 68.1243 29.067 67.98 28.6859C67.8358 28.3049 67.6056 27.9622 67.3076 27.6845C66.5854 27.1662 65.7018 26.9228 64.816 26.9984H58.432L58.4301 35.1194ZM64.1408 31.1066H60.9812V28.7219H64.162C64.3874 28.6908 64.6171 28.7171 64.8297 28.7984C65.0423 28.8798 65.2309 29.0135 65.378 29.1872C65.5114 29.4093 65.5743 29.6666 65.5584 29.9251C65.5704 30.1652 65.5185 30.4042 65.408 30.6176C65.2563 30.8006 65.06 30.9414 64.8381 31.0266C64.6161 31.1118 64.376 31.1384 64.1408 31.104V31.1066ZM61.3012 30.7866H64.1408C64.6656 30.7866 64.9908 30.6771 65.1348 30.4519C65.2141 30.2881 65.25 30.1067 65.2391 29.9251C65.2531 29.7345 65.2117 29.5438 65.12 29.376L65.1162 29.3703C64.9639 29.1463 64.6612 29.0419 64.162 29.0419H61.3012V30.7866ZM74.304 35.5687C71.4304 35.5687 69.7152 34.8551 69.0618 33.3875C68.9549 33.1041 68.8823 32.8089 68.8455 32.5082L68.8173 32.3239H72.2362L72.2586 32.4583C72.2849 32.5947 72.3428 32.7232 72.4276 32.8333C72.5626 32.9965 73.0132 33.2704 74.5082 33.2704C76.3053 33.2704 76.3053 32.9549 76.3053 32.7853C76.3053 32.4992 76.0973 32.4013 74.6317 32.2451L74.3533 32.2189C73.8016 32.1671 73.104 32.1011 72.7853 32.0736C70.0973 31.8304 68.8973 30.9952 68.8973 29.3664C68.8973 27.6557 70.9396 26.5504 74.1005 26.5504C76.6791 26.5504 78.3405 27.2301 79.0375 28.5722C79.2029 28.8844 79.3139 29.2224 79.3658 29.5719L79.3882 29.7517H75.9655L75.9514 29.6071C75.938 29.494 75.8897 29.388 75.8132 29.3037C75.6852 29.1322 75.2807 28.8487 74.025 28.8487C72.4832 28.8487 72.2708 29.0458 72.2708 29.2583C72.2708 29.5418 72.7578 29.6423 74.3188 29.8093C74.9696 29.8624 76.016 29.9699 76.3744 30.0135C78.6279 30.2579 79.6333 31.0727 79.6333 32.656C79.634 33.984 78.7092 35.5687 74.304 35.5687ZM69.1911 32.6439C69.2232 32.8549 69.2783 33.0618 69.3556 33.2608C69.9508 34.5978 71.57 35.2487 74.304 35.2487C76.5901 35.2487 79.3159 34.8007 79.3159 32.656C79.3159 31.2525 78.4263 30.5575 76.3405 30.3315C75.9821 30.288 74.9421 30.1811 74.2925 30.1274C72.6285 29.9469 71.952 29.8509 71.952 29.2583C71.952 28.6451 72.681 28.5287 74.0263 28.5287C75.0893 28.5287 75.776 28.7207 76.0672 29.1079C76.1467 29.2032 76.2067 29.3133 76.2439 29.4317H79.0176C78.9618 29.1842 78.8736 28.9451 78.7552 28.7207C78.1152 27.4925 76.5517 26.8704 74.1018 26.8704C71.1354 26.8704 69.2186 27.8503 69.2186 29.3664C69.2186 30.8128 70.2944 31.5271 72.8148 31.7549C73.1348 31.7824 73.8317 31.8483 74.3847 31.9008L74.665 31.9271C76.0263 32.0704 76.6266 32.16 76.6266 32.7853C76.6266 33.4586 75.8503 33.5904 74.5095 33.5904C73.2692 33.5904 72.4858 33.4042 72.1831 33.0375C72.0897 32.9205 72.0194 32.787 71.9757 32.6439H69.1911ZM85.7133 35.5578C82.3725 35.5578 80.5293 34.2067 80.5293 31.753V26.6791H83.7626V31.753C83.7626 32.5946 84.5159 33.0771 85.8285 33.0771C87.0829 33.0771 87.8618 32.5735 87.8618 31.7639V26.6791H91.0618V32.0218C91.065 34.2688 89.1136 35.5578 85.7114 35.5578H85.7133ZM80.8493 26.9991V31.753C80.8493 34.7853 83.8944 35.2378 85.7133 35.2378C87.5936 35.2378 90.7469 34.8199 90.7469 32.0218V26.9991H88.1869V31.7639C88.1869 32.7559 87.2628 33.3971 85.8336 33.3971C84.3399 33.3971 83.4477 32.7827 83.4477 31.753V26.9991H80.8493ZM104.622 35.4394H101.571V31.4842L99.84 35.4394H97.1783L95.4656 31.4919V35.4394H92.4032V26.6791H96.4314L98.5242 31.5091L100.718 26.6791H104.626L104.622 35.4394ZM101.891 35.1194H104.302V26.9991H100.922L98.514 32.2976L96.2189 26.9991H92.7207V35.1194H95.1431V29.952L97.3831 35.1213H99.6231L101.887 29.9597L101.891 35.1194ZM12.1946 26.8391H9.28003V35.2794H17.3338V33.0323H12.1946V26.8391ZM23.2167 26.6471C19.4964 26.6471 17.5399 28.4103 17.5399 30.9991C17.5399 33.9239 19.5936 35.4074 23.2167 35.4074C27.2052 35.4074 28.8826 33.6871 28.8826 30.9991C28.8826 28.2695 26.9901 26.6458 23.2167 26.6458V26.6471ZM23.2058 28.8403C23.4591 28.8391 23.7121 28.8539 23.9636 28.8845L20.7053 32.1427C20.5511 31.794 20.4759 31.4155 20.4851 31.0343C20.4851 29.7101 21.152 28.8391 23.2058 28.8391V28.8403ZM23.2167 33.2487C22.9727 33.2497 22.7288 33.2361 22.4864 33.2077L25.7504 29.9437C25.8989 30.2867 25.9699 30.6581 25.9584 31.0317C25.9584 32.32 25.344 33.2474 23.2167 33.2474V33.2487ZM34.6573 32.0967H37.657C37.6129 32.3048 37.5208 32.4998 37.3882 32.6663C36.7663 33.1729 35.9726 33.4194 35.1732 33.3543C34.7707 33.3973 34.3638 33.3534 33.9798 33.2254C33.5959 33.0974 33.244 32.8884 32.9479 32.6125C32.6446 32.1676 32.5005 31.6334 32.5389 31.0963C32.4899 30.5336 32.6465 29.9722 32.9799 29.5162C33.3991 29.0426 34.1088 28.8384 35.152 28.8384C35.8158 28.7835 36.4787 28.9539 37.0336 29.3223C37.2085 29.4612 37.3393 29.648 37.41 29.8599H40.192C40.1718 29.5107 40.0879 29.1682 39.9444 28.8493C39.2781 27.4944 37.7293 26.688 35.0957 26.688C32.8052 26.688 31.2679 27.3869 30.4186 28.441C29.8577 29.2022 29.5698 30.1302 29.6013 31.0752C29.565 32.0416 29.8455 32.9933 30.4 33.7856C31.2391 34.8736 32.7335 35.4087 34.5293 35.4087C35.7233 35.4919 36.909 35.1575 37.8836 34.4627L37.9591 35.2794H40.2701V30.2797H34.6573V32.0967ZM46.8295 26.6451C43.1098 26.6451 41.1527 28.4083 41.1527 30.9971C41.1527 33.9219 43.2058 35.4055 46.8295 35.4055C50.8186 35.4055 52.496 33.6851 52.496 30.9971C52.496 28.2695 50.6035 26.6458 46.8295 26.6458V26.6451ZM46.8192 28.8384C47.0658 28.8377 47.3122 28.8518 47.5572 28.8807L44.3117 32.128C44.1624 31.7831 44.0896 31.41 44.0986 31.0343C44.096 29.7101 44.7655 28.8391 46.8192 28.8391V28.8384ZM46.8295 33.2467C46.579 33.2478 46.3287 33.2333 46.08 33.2032L49.3549 29.9277C49.5089 30.2752 49.5827 30.653 49.5706 31.033C49.5719 32.32 48.96 33.2474 46.8295 33.2474V33.2467Z" fill="#76778B"></path></svg>