<svg xmlns="http://www.w3.org/2000/svg" width="115" height="64" viewBox="0 0 115 64" fill="none"><path d="M35.1651 29.2544C35.3955 29.2544 35.4723 29.3376 35.4723 29.5616V34.6304H38.0771C38.3011 34.6304 38.3843 34.7136 38.3843 34.9376V35.3856C38.3843 35.6096 38.3011 35.6928 38.0771 35.6928H34.6467C34.4227 35.6928 34.3331 35.6096 34.3331 35.3856V29.5616C34.3331 29.3376 34.4227 29.2544 34.6467 29.2544H35.1651Z" fill="#76778B"></path><path d="M40.6564 31.488C40.6564 30.0096 41.5908 29.12 43.2164 29.12C44.842 29.12 45.7764 30.0096 45.7764 31.488V33.4592C45.7764 34.9376 44.8356 35.8272 43.2164 35.8272C41.5972 35.8272 40.6564 34.9376 40.6564 33.4592V31.488ZM44.7012 31.488C44.7012 30.656 44.1828 30.208 43.2484 30.208C42.314 30.208 41.802 30.6624 41.802 31.488V33.472C41.802 34.3104 42.314 34.752 43.2484 34.752C44.1828 34.752 44.7012 34.2912 44.7012 33.472V31.488Z" fill="#76778B"></path><path d="M53.3988 32.1664C53.6484 32.1664 53.706 32.2496 53.706 32.4736V33.6896C53.7128 33.976 53.6554 34.2603 53.538 34.5217C53.4206 34.783 53.2462 35.0148 53.0276 35.2C52.4847 35.6323 51.8002 35.8468 51.1076 35.8016C49.45 35.8016 48.5476 34.912 48.5476 33.4336V31.4496C48.5476 29.9904 49.482 29.0944 51.1076 29.0944C52.3876 29.0944 53.2196 29.6 53.5716 30.6112C53.5913 30.6492 53.6019 30.6912 53.6024 30.734C53.603 30.7768 53.5936 30.8191 53.575 30.8577C53.5564 30.8962 53.529 30.9298 53.4951 30.9559C53.4612 30.982 53.4216 30.9998 53.3796 31.008L52.8804 31.1808C52.6628 31.2576 52.5732 31.2128 52.4964 30.9888C52.3904 30.7154 52.1963 30.4852 51.9448 30.3345C51.6932 30.1838 51.3987 30.1213 51.1076 30.1568C50.1668 30.1568 49.6548 30.6112 49.6548 31.4368V33.472C49.6548 34.3104 50.1732 34.752 51.1076 34.752C52.042 34.752 52.618 34.3232 52.618 33.696V33.2224H51.2292C50.9988 33.2224 50.9156 33.1328 50.9156 32.9088V32.4736C50.9156 32.2496 50.9988 32.1664 51.2292 32.1664H53.3988Z" fill="#76778B"></path><path d="M56.3491 31.488C56.3491 30.0096 57.2835 29.12 58.9091 29.12C60.5347 29.12 61.4691 30.0096 61.4691 31.488V33.4592C61.4691 34.9376 60.5283 35.8272 58.9091 35.8272C57.2899 35.8272 56.3491 34.9376 56.3491 33.4592V31.488ZM60.3875 31.488C60.3875 30.656 59.8691 30.208 58.9411 30.208C58.0131 30.208 57.4883 30.6624 57.4883 31.488V33.472C57.4883 34.3104 58.0067 34.752 58.9411 34.752C59.8755 34.752 60.3875 34.2912 60.3875 33.472V31.488Z" fill="#76778B"></path><path d="M64.4835 29.44C64.4835 29.2992 64.5283 29.2544 64.6691 29.2544H64.9635C65.1043 29.2544 65.1363 29.2992 65.1363 29.44V35.5072C65.1363 35.648 65.1363 35.6928 64.9635 35.6928H64.6691C64.5283 35.6928 64.4835 35.648 64.4835 35.5072V29.44Z" fill="#76778B"></path><path d="M70.9667 29.2544C71.4997 29.2544 72.0108 29.4661 72.3877 29.843C72.7646 30.2199 72.9763 30.731 72.9763 31.264C72.9763 31.797 72.7646 32.3081 72.3877 32.685C72.0108 33.0619 71.4997 33.2736 70.9667 33.2736H69.0467V35.5072C69.0467 35.648 69.0147 35.6928 68.8803 35.6928H68.5795C68.4451 35.6928 68.3939 35.648 68.3939 35.5072V29.44C68.3939 29.2992 68.4451 29.2544 68.5795 29.2544H70.9667ZM70.9091 32.64C71.0923 32.64 71.2738 32.6039 71.443 32.5338C71.6123 32.4637 71.7661 32.3609 71.8957 32.2313C72.0252 32.1018 72.128 31.948 72.1981 31.7787C72.2682 31.6094 72.3043 31.428 72.3043 31.2448C72.3043 31.0616 72.2682 30.8801 72.1981 30.7109C72.128 30.5416 72.0252 30.3878 71.8957 30.2582C71.7661 30.1287 71.6123 30.0259 71.443 29.9558C71.2738 29.8857 71.0923 29.8496 70.9091 29.8496H68.9891V32.64H70.9091Z" fill="#76778B"></path><path d="M77.9748 29.1264C78.4689 29.0718 78.9674 29.1781 79.3963 29.4295C79.8252 29.6808 80.1616 30.0638 80.3556 30.5216C80.4068 30.624 80.3556 30.7072 80.2532 30.7584L79.9716 30.8864C79.8564 30.9312 79.8116 30.9248 79.7412 30.8032C79.5962 30.4635 79.3469 30.1787 79.0293 29.99C78.7118 29.8013 78.3425 29.7185 77.9748 29.7536C76.8932 29.7536 76.3044 30.1824 76.3044 30.9504C76.2981 31.1851 76.3769 31.4141 76.5263 31.5953C76.6757 31.7764 76.8855 31.8974 77.1172 31.936C77.4614 32.0482 77.8183 32.117 78.1796 32.1408C78.6169 32.1641 79.0483 32.2525 79.4596 32.4032C79.7748 32.5029 80.0462 32.7082 80.228 32.9844C80.4098 33.2606 80.491 33.5909 80.458 33.92C80.458 35.1168 79.5876 35.84 77.9876 35.84C77.4628 35.9 76.9332 35.7784 76.4872 35.4954C76.0412 35.2124 75.7056 34.7852 75.5364 34.2848C75.5251 34.262 75.519 34.2369 75.5185 34.2115C75.518 34.186 75.5231 34.1608 75.5335 34.1376C75.5439 34.1143 75.5593 34.0937 75.5786 34.0771C75.5979 34.0605 75.6206 34.0484 75.6452 34.0416L75.9268 33.9392C75.9489 33.9301 75.9728 33.9258 75.9967 33.9264C76.0207 33.927 76.0442 33.9327 76.0659 33.9429C76.0876 33.9531 76.1069 33.9677 76.1226 33.9858C76.1383 34.0039 76.1501 34.0251 76.1572 34.048C76.3003 34.4095 76.5549 34.7161 76.884 34.9232C77.2131 35.1304 77.5997 35.2273 77.9876 35.2C79.1972 35.2 79.7924 34.7776 79.7924 33.92C79.8036 33.6945 79.7346 33.4724 79.5974 33.2931C79.4603 33.1138 79.2641 32.989 79.0436 32.9408C78.7124 32.842 78.3709 32.7819 78.026 32.7616L77.3348 32.672C77.1184 32.6261 76.9048 32.5684 76.6948 32.4992C76.4873 32.4365 76.2939 32.3344 76.1252 32.1984C75.9554 32.0446 75.8215 31.8554 75.7331 31.6442C75.6446 31.4329 75.6036 31.2048 75.6132 30.976C75.658 29.856 76.4964 29.1264 77.9748 29.1264Z" fill="#76778B"></path><path d="M83.9076 33.504C83.9348 33.9566 84.1337 34.3817 84.4638 34.6926C84.7939 35.0034 85.2302 35.1765 85.6836 35.1765C86.137 35.1765 86.5733 35.0034 86.9034 34.6926C87.2335 34.3817 87.4324 33.9566 87.4596 33.504V29.44C87.4596 29.2992 87.5044 29.2544 87.6452 29.2544H87.9396C88.0804 29.2544 88.1252 29.2992 88.1252 29.44V33.4976C88.1252 34.9504 87.2676 35.8272 85.6868 35.8272C84.106 35.8272 83.2484 34.9504 83.2484 33.4976V29.44C83.2484 29.2992 83.2932 29.2544 83.4276 29.2544H83.7284C83.8628 29.2544 83.9076 29.2992 83.9076 29.44V33.504Z" fill="#76778B"></path><path d="M96.9571 29.2544C97.0979 29.2544 97.1427 29.2992 97.1427 29.44V35.5072C97.1427 35.648 97.0979 35.6928 96.9571 35.6928H96.6883C96.5539 35.6928 96.5091 35.648 96.5091 35.5072V31.8144C96.509 31.2771 96.5453 30.7404 96.6179 30.208H96.5795C96.3796 30.6949 96.1465 31.1674 95.8819 31.6224L94.5059 34.048C94.4891 34.0901 94.4599 34.1261 94.4222 34.1512C94.3845 34.1763 94.34 34.1895 94.2947 34.1888H94.1155C94.0695 34.189 94.0244 34.1758 93.9857 34.1508C93.9471 34.1258 93.9166 34.0901 93.8979 34.048L92.5027 31.5968C92.2549 31.1483 92.041 30.682 91.8627 30.2016H91.8243C91.8899 30.7389 91.9241 31.2795 91.9267 31.8208V35.5072C91.9267 35.648 91.8819 35.6928 91.7411 35.6928H91.4915C91.3507 35.6928 91.3059 35.648 91.3059 35.5072V29.44C91.3059 29.2992 91.3507 29.2544 91.4915 29.2544H91.7219C91.7746 29.2495 91.8274 29.261 91.8733 29.2874C91.9191 29.3137 91.9557 29.3536 91.9779 29.4016L94.2179 33.3824L96.4451 29.44C96.5155 29.3056 96.5539 29.2864 96.6947 29.2864L96.9571 29.2544Z" fill="#76778B"></path><path d="M23.7796 34.272V38.8992C23.7796 39.0766 23.7091 39.2467 23.5837 39.3721C23.4583 39.4976 23.2882 39.568 23.1108 39.568C22.9334 39.568 22.7633 39.4976 22.6379 39.3721C22.5124 39.2467 22.442 39.0766 22.442 38.8992V34.2784C22.6282 34.4144 22.8515 34.4903 23.082 34.496C23.3333 34.5032 23.5794 34.4241 23.7796 34.272ZM29.4756 32.9344C29.3058 32.9344 29.1431 33.0018 29.023 33.1219C28.903 33.2419 28.8356 33.4047 28.8356 33.5744V34.3808C28.8356 34.5582 28.906 34.7283 29.0315 34.8537C29.1569 34.9792 29.327 35.0496 29.5044 35.0496C29.6818 35.0496 29.8519 34.9792 29.9773 34.8537C30.1027 34.7283 30.1732 34.5582 30.1732 34.3808V33.6064C30.1782 33.5146 30.1633 33.4229 30.1297 33.3374C30.096 33.2518 30.0443 33.1746 29.9781 33.1108C29.9119 33.047 29.8328 32.9983 29.7461 32.9679C29.6594 32.9374 29.5671 32.926 29.4756 32.9344ZM20.9892 36.0256C20.7589 36.0187 20.536 35.9429 20.3492 35.808V40.448C20.3492 40.6262 20.42 40.7972 20.546 40.9232C20.672 41.0492 20.843 41.12 21.0212 41.12C21.1994 41.12 21.3703 41.0492 21.4964 40.9232C21.6224 40.7972 21.6932 40.6262 21.6932 40.448V35.84C21.4842 35.9751 21.2376 36.0401 20.9892 36.0256ZM27.3892 31.5456C27.3025 31.5413 27.2158 31.5546 27.1344 31.5848C27.053 31.615 26.9787 31.6615 26.9158 31.7214C26.8529 31.7812 26.8029 31.8533 26.7688 31.9331C26.7346 32.0129 26.7171 32.0988 26.7172 32.1856V35.7504C26.7172 35.9286 26.788 36.0996 26.914 36.2256C27.04 36.3516 27.211 36.4224 27.3892 36.4224C27.5674 36.4224 27.7383 36.3516 27.8644 36.2256C27.9904 36.0996 28.0612 35.9286 28.0612 35.7504V32.2304C28.0663 32.1381 28.0513 32.0457 28.0173 31.9597C27.9832 31.8737 27.931 31.796 27.8641 31.7322C27.7971 31.6683 27.7172 31.6197 27.6297 31.5897C27.5422 31.5597 27.4492 31.549 27.3572 31.5584L27.3892 31.5456ZM25.2644 32.9152C25.0233 32.9136 24.7887 32.8376 24.5924 32.6976V37.3504C24.5924 37.5286 24.6632 37.6996 24.7892 37.8256C24.9152 37.9516 25.0862 38.0224 25.2644 38.0224C25.4426 38.0224 25.6135 37.9516 25.7396 37.8256C25.8656 37.6996 25.9364 37.5286 25.9364 37.3504V32.704C25.7333 32.8553 25.4855 32.9341 25.2324 32.928L25.2644 32.9152ZM19.5364 36.48V23.4816C19.5347 23.3232 19.4706 23.1718 19.3579 23.0604C19.2453 22.9489 19.0932 22.8864 18.9348 22.8864H18.794C18.6355 22.8864 18.4835 22.9489 18.3708 23.0604C18.2582 23.1718 18.1941 23.3232 18.1924 23.4816V36.48C18.1924 36.6396 18.2558 36.7926 18.3686 36.9054C18.4814 37.0182 18.6344 37.0816 18.794 37.0816H18.9348C19.0943 37.0816 19.2474 37.0182 19.3602 36.9054C19.473 36.7926 19.5364 36.6396 19.5364 36.48ZM21.0596 35.5328H20.9188C20.7592 35.5328 20.6062 35.4694 20.4934 35.3566C20.3806 35.2438 20.3172 35.0908 20.3172 34.9312V25.0304C20.3189 24.872 20.383 24.7206 20.4956 24.6092C20.6083 24.4977 20.7603 24.4352 20.9188 24.4352H21.0596C21.218 24.4352 21.3701 24.4977 21.4827 24.6092C21.5954 24.7206 21.6595 24.872 21.6612 25.0304V34.944C21.6612 35.1036 21.5978 35.2566 21.485 35.3694C21.3722 35.4822 21.2191 35.5456 21.0596 35.5456V35.5328ZM23.178 34.0096H23.0308C22.8729 34.0096 22.7215 33.9469 22.6099 33.8353C22.4983 33.7237 22.4356 33.5723 22.4356 33.4144V26.5664C22.4347 26.4877 22.4495 26.4096 22.479 26.3367C22.5086 26.2637 22.5523 26.1974 22.6076 26.1414C22.663 26.0855 22.7289 26.041 22.8015 26.0107C22.8742 25.9804 22.9521 25.9648 23.0308 25.9648H23.178C23.3364 25.9665 23.4878 26.0306 23.5992 26.1433C23.7107 26.2559 23.7732 26.408 23.7732 26.5664V33.4144C23.7732 33.5723 23.7105 33.7237 23.5989 33.8353C23.4872 33.9469 23.3358 34.0096 23.178 34.0096ZM25.2964 32.4416H25.162C25.0035 32.4416 24.8515 32.3791 24.7388 32.2677C24.6262 32.1562 24.5621 32.0049 24.5604 31.8464V28.16C24.5551 28.0778 24.5668 27.9955 24.5947 27.918C24.6225 27.8405 24.666 27.7696 24.7224 27.7096C24.7788 27.6496 24.8469 27.6018 24.9225 27.5692C24.9981 27.5366 25.0796 27.5198 25.162 27.52H25.3028C25.4623 27.52 25.6154 27.5834 25.7282 27.6962C25.841 27.809 25.9044 27.9621 25.9044 28.1216V31.8336C25.9052 31.9132 25.8903 31.9921 25.8604 32.0658C25.8306 32.1395 25.7864 32.2066 25.7305 32.2632C25.6745 32.3197 25.6079 32.3646 25.5345 32.3952C25.4611 32.4259 25.3823 32.4416 25.3028 32.4416H25.2964ZM27.4212 31.0656H27.2804C27.1208 31.0656 26.9678 31.0022 26.855 30.8894C26.7422 30.7766 26.6788 30.6236 26.6788 30.464V29.5104C26.6805 29.352 26.7446 29.2006 26.8572 29.0892C26.9699 28.9777 27.1219 28.9152 27.2804 28.9152H27.4212C27.5796 28.9152 27.7317 28.9777 27.8443 29.0892C27.957 29.2006 28.0211 29.352 28.0228 29.5104V30.464C28.0228 30.6225 27.9603 30.7745 27.8488 30.8872C27.7374 30.9998 27.586 31.0639 27.4276 31.0656H27.4212Z" fill="#76778B"></path></svg>