<svg width="166" height="42" viewBox="0 0 166 42" fill="none" xmlns="http://www.w3.org/2000/svg">
<path d="M43 26.6631C43 32.9256 37.926 38 31.6698 38C25.4136 38 20.3396 32.9256 20.3396 26.6631C20.3396 20.4006 25.4136 15.3262 31.6698 15.3262C37.926 15.3262 43 20.4006 43 26.6631Z" stroke="#66D7D1" stroke-width="6"/>
<path d="M25.6604 26.6631C25.6604 32.9256 20.5864 38 14.3302 38C8.07403 38 3 32.9256 3 26.6631C3 20.4006 8.07403 15.3262 14.3302 15.3262C20.5864 15.3262 25.6604 20.4006 25.6604 26.6631Z" stroke="#6369D1" stroke-width="6"/>
<ellipse cx="14.3303" cy="5.58781" rx="4.58567" ry="4.58781" fill="#6369D1"/>
<ellipse cx="31.6698" cy="5.58781" rx="4.58567" ry="4.58781" fill="#66D7D1"/>
<path d="M69.392 11.924C70.8 11.924 72.0373 12.276 73.104 12.98C74.192 13.6627 75.0347 14.6333 75.632 15.892C76.2293 17.1507 76.528 18.612 76.528 20.276C76.528 21.94 76.2187 23.4227 75.6 24.724C75.0027 26.004 74.16 26.996 73.072 27.7C72.0053 28.404 70.7787 28.756 69.392 28.756C68.1973 28.756 67.1307 28.5 66.192 27.988C65.2747 27.476 64.5813 26.7613 64.112 25.844V28.5H60.176V4.948H64.144V14.772C64.6347 13.876 65.3387 13.1827 66.256 12.692C67.1733 12.18 68.2187 11.924 69.392 11.924ZM68.336 25.62C69.6587 25.62 70.6827 25.1507 71.408 24.212C72.1333 23.2733 72.496 21.9613 72.496 20.276C72.496 18.612 72.1333 17.332 71.408 16.436C70.6827 15.5187 69.648 15.06 68.304 15.06C66.96 15.06 65.9253 15.5187 65.2 16.436C64.4747 17.3533 64.112 18.6547 64.112 20.34C64.112 22.0467 64.4747 23.3587 65.2 24.276C65.9253 25.172 66.9707 25.62 68.336 25.62ZM86.3478 28.756C84.7051 28.756 83.2544 28.4147 81.9958 27.732C80.7584 27.0493 79.7984 26.0787 79.1158 24.82C78.4544 23.54 78.1238 22.0467 78.1238 20.34C78.1238 18.6333 78.4544 17.1507 79.1158 15.892C79.7984 14.612 80.7584 13.6307 81.9958 12.948C83.2544 12.2653 84.7051 11.924 86.3478 11.924C87.9691 11.924 89.3984 12.2653 90.6358 12.948C91.8731 13.6307 92.8224 14.612 93.4838 15.892C94.1664 17.1507 94.5078 18.6333 94.5078 20.34C94.5078 22.0467 94.1664 23.54 93.4838 24.82C92.8224 26.0787 91.8731 27.0493 90.6358 27.732C89.3984 28.4147 87.9691 28.756 86.3478 28.756ZM86.3158 25.62C87.6811 25.62 88.7158 25.1827 89.4198 24.308C90.1451 23.412 90.5078 22.0893 90.5078 20.34C90.5078 18.612 90.1451 17.3 89.4198 16.404C88.6944 15.4867 87.6704 15.028 86.3478 15.028C85.0038 15.028 83.9691 15.4867 83.2438 16.404C82.5184 17.3 82.1558 18.612 82.1558 20.34C82.1558 22.0893 82.5078 23.412 83.2118 24.308C83.9371 25.1827 84.9718 25.62 86.3158 25.62ZM104.285 28.756C102.643 28.756 101.192 28.4147 99.9333 27.732C98.6959 27.0493 97.7359 26.0787 97.0533 24.82C96.3919 23.54 96.0613 22.0467 96.0613 20.34C96.0613 18.6333 96.3919 17.1507 97.0533 15.892C97.7359 14.612 98.6959 13.6307 99.9333 12.948C101.192 12.2653 102.643 11.924 104.285 11.924C105.907 11.924 107.336 12.2653 108.573 12.948C109.811 13.6307 110.76 14.612 111.421 15.892C112.104 17.1507 112.445 18.6333 112.445 20.34C112.445 22.0467 112.104 23.54 111.421 24.82C110.76 26.0787 109.811 27.0493 108.573 27.732C107.336 28.4147 105.907 28.756 104.285 28.756ZM104.253 25.62C105.619 25.62 106.653 25.1827 107.357 24.308C108.083 23.412 108.445 22.0893 108.445 20.34C108.445 18.612 108.083 17.3 107.357 16.404C106.632 15.4867 105.608 15.028 104.285 15.028C102.941 15.028 101.907 15.4867 101.181 16.404C100.456 17.3 100.093 18.612 100.093 20.34C100.093 22.0893 100.445 23.412 101.149 24.308C101.875 25.1827 102.909 25.62 104.253 25.62ZM122.223 28.756C120.537 28.756 119.076 28.4147 117.839 27.732C116.601 27.0493 115.652 26.0893 114.991 24.852C114.329 23.5933 113.999 22.1213 113.999 20.436C113.999 18.7507 114.34 17.268 115.023 15.988C115.727 14.708 116.708 13.716 117.967 13.012C119.247 12.2867 120.719 11.924 122.383 11.924C123.535 11.924 124.644 12.1053 125.711 12.468C126.799 12.8307 127.663 13.332 128.303 13.972L127.183 16.788C126.5 16.2333 125.775 15.8173 125.007 15.54C124.239 15.2413 123.481 15.092 122.735 15.092C121.284 15.092 120.153 15.5507 119.343 16.468C118.532 17.364 118.127 18.6653 118.127 20.372C118.127 22.0787 118.521 23.38 119.311 24.276C120.121 25.172 121.263 25.62 122.735 25.62C123.481 25.62 124.239 25.4707 125.007 25.172C125.775 24.8733 126.5 24.4467 127.183 23.892L128.303 26.708C127.62 27.348 126.735 27.8493 125.647 28.212C124.559 28.5747 123.417 28.756 122.223 28.756ZM145.444 12.34V28.5H141.509V25.908C141.018 26.804 140.314 27.508 139.397 28.02C138.479 28.5107 137.434 28.756 136.26 28.756C134.853 28.756 133.605 28.4147 132.516 27.732C131.429 27.0493 130.586 26.0787 129.989 24.82C129.391 23.5613 129.093 22.1 129.093 20.436C129.093 18.772 129.391 17.3 129.989 16.02C130.607 14.7187 131.461 13.716 132.549 13.012C133.637 12.2867 134.874 11.924 136.26 11.924C137.434 11.924 138.479 12.18 139.397 12.692C140.314 13.1827 141.018 13.876 141.509 14.772V12.34H145.444ZM137.349 25.62C138.671 25.62 139.695 25.1613 140.421 24.244C141.146 23.3267 141.509 22.036 141.509 20.372C141.509 18.6653 141.146 17.3533 140.421 16.436C139.695 15.5187 138.661 15.06 137.317 15.06C135.994 15.06 134.959 15.54 134.213 16.5C133.487 17.4387 133.125 18.7507 133.125 20.436C133.125 22.1 133.487 23.38 134.213 24.276C134.959 25.172 136.005 25.62 137.349 25.62ZM158.049 11.924C161.91 11.924 163.841 14.1427 163.841 18.58V28.5H159.841V18.772C159.841 17.492 159.596 16.564 159.105 15.988C158.614 15.3907 157.857 15.092 156.833 15.092C155.617 15.092 154.636 15.4867 153.889 16.276C153.142 17.044 152.769 18.068 152.769 19.348V28.5H148.801V4.948H152.769V14.676C153.324 13.8013 154.06 13.1293 154.977 12.66C155.894 12.1693 156.918 11.924 158.049 11.924Z" fill="#1D1F45"/>
<path d="M62.926 40.556C62.436 40.556 61.9927 40.4487 61.596 40.234C61.204 40.0147 60.896 39.716 60.672 39.338C60.448 38.9553 60.336 38.526 60.336 38.05C60.336 37.574 60.448 37.147 60.672 36.769C60.896 36.3863 61.2063 36.0877 61.603 35.873C61.9997 35.6537 62.443 35.544 62.933 35.544C63.3157 35.544 63.6657 35.6093 63.983 35.74C64.3003 35.866 64.571 36.055 64.795 36.307L64.34 36.748C63.9713 36.3607 63.5117 36.167 62.961 36.167C62.597 36.167 62.268 36.2487 61.974 36.412C61.68 36.5753 61.449 36.8017 61.281 37.091C61.1177 37.3757 61.036 37.6953 61.036 38.05C61.036 38.4047 61.1177 38.7267 61.281 39.016C61.449 39.3007 61.68 39.5247 61.974 39.688C62.268 39.8513 62.597 39.933 62.961 39.933C63.507 39.933 63.9667 39.737 64.34 39.345L64.795 39.786C64.571 40.038 64.298 40.2293 63.976 40.36C63.6587 40.4907 63.3087 40.556 62.926 40.556ZM71.8076 35.6V40.5H71.1076V38.316H68.2936V40.5H67.5936V35.6H68.2936V37.707H71.1076V35.6H71.8076ZM75.0743 35.6H75.7743V40.5H75.0743V35.6ZM79.0412 35.6H79.7412V39.891H82.3942V40.5H79.0412V35.6ZM84.9975 35.6H87.0625C87.5805 35.6 88.0402 35.7027 88.4415 35.908C88.8428 36.1133 89.1532 36.4027 89.3725 36.776C89.5965 37.1447 89.7085 37.5693 89.7085 38.05C89.7085 38.5307 89.5965 38.9577 89.3725 39.331C89.1532 39.6997 88.8428 39.9867 88.4415 40.192C88.0402 40.3973 87.5805 40.5 87.0625 40.5H84.9975V35.6ZM87.0205 39.891C87.4172 39.891 87.7648 39.814 88.0635 39.66C88.3668 39.506 88.6002 39.2913 88.7635 39.016C88.9268 38.736 89.0085 38.414 89.0085 38.05C89.0085 37.686 88.9268 37.3663 88.7635 37.091C88.6002 36.811 88.3668 36.594 88.0635 36.44C87.7648 36.286 87.4172 36.209 87.0205 36.209H85.6975V39.891H87.0205ZM98.4516 40.556C97.9616 40.556 97.5183 40.4487 97.1216 40.234C96.7296 40.0147 96.4216 39.716 96.1976 39.338C95.9736 38.9553 95.8616 38.526 95.8616 38.05C95.8616 37.574 95.9736 37.147 96.1976 36.769C96.4216 36.3863 96.7319 36.0877 97.1286 35.873C97.5253 35.6537 97.9686 35.544 98.4586 35.544C98.8413 35.544 99.1913 35.6093 99.5086 35.74C99.8259 35.866 100.097 36.055 100.321 36.307L99.8656 36.748C99.4969 36.3607 99.0373 36.167 98.4866 36.167C98.1226 36.167 97.7936 36.2487 97.4996 36.412C97.2056 36.5753 96.9746 36.8017 96.8066 37.091C96.6433 37.3757 96.5616 37.6953 96.5616 38.05C96.5616 38.4047 96.6433 38.7267 96.8066 39.016C96.9746 39.3007 97.2056 39.5247 97.4996 39.688C97.7936 39.8513 98.1226 39.933 98.4866 39.933C99.0326 39.933 99.4923 39.737 99.8656 39.345L100.321 39.786C100.097 40.038 99.8236 40.2293 99.5016 40.36C99.1843 40.4907 98.8343 40.556 98.4516 40.556ZM106.125 39.275H103.521L102.982 40.5H102.261L104.48 35.6H105.173L107.399 40.5H106.664L106.125 39.275ZM105.88 38.715L104.823 36.314L103.766 38.715H105.88ZM113.206 40.5L112.149 38.995C112.018 39.0043 111.916 39.009 111.841 39.009H110.63V40.5H109.93V35.6H111.841C112.476 35.6 112.975 35.7517 113.339 36.055C113.703 36.3583 113.885 36.776 113.885 37.308C113.885 37.686 113.792 38.008 113.605 38.274C113.418 38.54 113.152 38.7337 112.807 38.855L113.969 40.5H113.206ZM111.82 38.414C112.263 38.414 112.602 38.3183 112.835 38.127C113.068 37.9357 113.185 37.6627 113.185 37.308C113.185 36.9533 113.068 36.6827 112.835 36.496C112.602 36.3047 112.263 36.209 111.82 36.209H110.63V38.414H111.82ZM120.372 39.891V40.5H116.816V35.6H120.274V36.209H117.516V37.714H119.973V38.309H117.516V39.891H120.372ZM130.541 39.891V40.5H126.985V35.6H130.443V36.209H127.685V37.714H130.142V38.309H127.685V39.891H130.541ZM136.5 40.5L135.03 38.477L133.581 40.5H132.776L134.617 37.987L132.888 35.6H133.686L135.058 37.483L136.416 35.6H137.179L135.45 37.966L137.305 40.5H136.5ZM141.677 35.6C142.312 35.6 142.811 35.7517 143.175 36.055C143.539 36.3583 143.721 36.776 143.721 37.308C143.721 37.84 143.539 38.2577 143.175 38.561C142.811 38.8643 142.312 39.016 141.677 39.016H140.466V40.5H139.766V35.6H141.677ZM141.656 38.407C142.099 38.407 142.438 38.3137 142.671 38.127C142.904 37.9357 143.021 37.6627 143.021 37.308C143.021 36.9533 142.904 36.6827 142.671 36.496C142.438 36.3047 142.099 36.209 141.656 36.209H140.466V38.407H141.656ZM150.105 39.891V40.5H146.549V35.6H150.007V36.209H147.249V37.714H149.706V38.309H147.249V39.891H150.105ZM156.315 40.5L155.258 38.995C155.127 39.0043 155.024 39.009 154.95 39.009H153.739V40.5H153.039V35.6H154.95C155.584 35.6 156.084 35.7517 156.448 36.055C156.812 36.3583 156.994 36.776 156.994 37.308C156.994 37.686 156.9 38.008 156.714 38.274C156.527 38.54 156.261 38.7337 155.916 38.855L157.078 40.5H156.315ZM154.929 38.414C155.372 38.414 155.71 38.3183 155.944 38.127C156.177 37.9357 156.294 37.6627 156.294 37.308C156.294 36.9533 156.177 36.6827 155.944 36.496C155.71 36.3047 155.372 36.209 154.929 36.209H153.739V38.414H154.929ZM160.829 36.209H159.149V35.6H163.202V36.209H161.522V40.5H160.829V36.209Z" fill="#76778B"/>
</svg>
