<?xml version="1.0" encoding="UTF-8"?> <svg xmlns="http://www.w3.org/2000/svg" width="134" height="66" viewBox="0 0 134 66" fill="none"><path d="M13.6596 60.2811C12.5953 60.5263 11.6233 60.4566 10.7435 60.072C9.86373 59.6875 9.00023 59.1778 8.15301 58.5428C7.30723 57.9494 6.62269 57.2464 6.09939 56.4338C5.61731 55.6199 5.3149 54.6334 5.19219 53.4744C5.23144 52.2266 5.54215 51.0732 6.12431 50.014C6.74769 48.9535 7.49614 47.93 8.36965 46.9437C11.351 43.6814 14.7397 40.8617 18.5357 38.4847C18.9804 38.2198 19.4037 37.9349 19.8057 37.6299C20.249 37.3235 20.6922 37.0171 21.1354 36.7107C21.3372 36.5789 21.4977 36.4487 21.617 36.3198C21.7349 36.1495 21.8939 35.9777 22.0942 35.8045L22.0467 34.4351C21.7084 34.1977 21.3958 34.1049 21.1087 34.1565C20.8615 34.1652 20.5737 34.1961 20.2455 34.2492C19.2057 35.1998 18.1005 36.0488 16.9299 36.7962C15.7593 37.5437 14.5886 38.2911 13.418 39.0386C12.5316 39.6514 11.5989 40.1204 10.6199 40.4457C9.64094 40.7709 8.64065 41.0762 7.61905 41.3614L7.37179 41.3701C6.37844 41.2804 5.38365 41.1492 4.38742 40.9764C3.43097 40.7608 2.54758 40.2725 1.73725 39.5116C0.754891 38.5491 0.2208 37.4253 0.134979 36.1404C-0.0237109 33.944 0.109664 31.8412 0.535105 29.8321C0.60745 29.5387 0.659911 29.2668 0.692486 29.0164C0.764832 28.723 0.858502 28.4496 0.973497 28.1963C1.50726 26.9312 2.04174 25.6867 2.57694 24.4631C3.15192 23.1965 3.8534 22.0085 4.68138 20.8992C6.02063 19.0656 7.5518 17.4122 9.27489 15.939C10.1982 15.2003 11.1693 14.6468 12.188 14.2786C13.248 13.909 14.3086 13.5601 15.37 13.2319C15.7792 13.1345 16.2744 13.1378 16.8557 13.242C17.7254 13.3361 18.4722 13.4552 19.0961 13.5995C19.72 13.7437 20.3049 13.9517 20.8507 14.2233C21.4362 14.452 22.0041 14.7644 22.5542 15.1605C23.1455 15.5552 23.8229 16.0507 24.5862 16.647C24.6715 16.7271 24.7568 16.8072 24.8421 16.8873C24.926 16.9259 25.0312 16.9845 25.1577 17.0632L26.703 17.0088C26.7811 16.8815 26.8607 16.7956 26.9417 16.7512C27.0624 16.6638 27.142 16.5779 27.1803 16.4935C27.4088 15.9454 27.6175 15.4187 27.8063 14.9135C27.9538 14.4098 28.1654 13.9661 28.4409 13.5825C28.7164 13.1989 29.2023 12.9325 29.8986 12.7834C29.981 12.7805 30.2311 12.8548 30.649 13.0063C30.7755 13.0849 30.8814 13.1643 30.9667 13.2444C31.0917 13.2815 31.2175 13.3394 31.344 13.4181C31.5659 13.8673 31.6642 14.3208 31.6388 14.7787C31.6134 15.2366 31.5468 15.696 31.439 16.1568C31.1554 17.4963 30.8511 18.8364 30.5263 20.1773C30.2 21.4768 29.8951 22.7962 29.6115 24.1357C29.3575 25.1417 29.1036 26.1477 28.8497 27.1538C28.5943 28.1183 28.3389 29.0829 28.0836 30.0474C27.9758 30.5082 27.9497 30.9454 28.0053 31.3589C28.1006 31.7295 28.3204 32.1164 28.6644 32.5198C29.2912 32.747 30.0735 32.6987 31.0112 32.375C31.7444 32.0999 32.4782 31.8456 33.2128 31.612C33.9474 31.3785 34.6407 31.1463 35.2929 30.9157C36.407 30.9181 37.1653 31.3692 37.5679 32.269C37.7232 33.1776 37.3362 33.9183 36.4071 34.491C35.8829 34.8418 35.3352 35.1104 34.764 35.2966C34.2341 35.4815 33.6835 35.667 33.1123 35.8533C31.97 36.2258 30.829 36.6399 29.6896 37.0954C28.5486 37.5094 27.4533 38.0465 26.4034 38.7066C26.3224 38.751 26.262 38.7947 26.2223 38.8376C26.1825 38.8806 26.1221 38.9242 26.0411 38.9686C25.5241 39.5269 25.1542 40.1631 24.9314 40.8773C24.7072 41.5499 24.4631 42.244 24.1991 42.9596C23.8201 43.9284 23.4624 44.9174 23.126 45.9263C22.8309 46.9338 22.4946 47.9427 22.117 48.9531C21.7025 50.0895 21.2256 51.2072 20.686 52.3064C20.1892 53.4456 19.629 54.5455 19.0057 55.6061C18.3425 56.7096 17.5912 57.6501 16.7517 58.4274C15.9136 59.2463 14.8829 59.8642 13.6596 60.2811ZM6.5472 37.2236C7.29329 37.322 7.95265 37.2989 8.52527 37.1541C9.13766 36.9664 9.72656 36.6964 10.292 36.3441C12.2724 35.1527 14.1675 33.8813 15.9773 32.5297C17.7857 31.1366 19.5507 29.6827 21.2724 28.1681C21.592 27.866 21.8917 27.5854 22.1715 27.3263C22.4499 27.0257 22.7276 26.7043 23.0046 26.3622C23.915 25.25 24.1418 24.0579 23.6851 22.7861C22.8671 20.6129 21.6401 19.1396 20.0041 18.3662C18.4079 17.5498 16.547 17.4283 14.4214 18.0016C13.4808 18.2424 12.5871 18.6477 11.7404 19.2176C10.9335 19.7445 10.192 20.373 9.51587 21.1031C8.08412 22.6491 6.94661 24.351 6.10331 26.2087C5.25858 28.0249 4.58229 29.939 4.07443 31.9511C3.8205 32.9571 3.94105 34.0539 4.43609 35.2413C4.65797 35.6905 4.91962 36.0968 5.22104 36.4601C5.52246 36.8234 5.96451 37.0779 6.5472 37.2236ZM18.0457 43.9861C17.6791 44.1236 17.3339 44.2812 17.0099 44.4587C16.7258 44.5934 16.4438 44.7902 16.164 45.0494C15.4438 45.6979 14.703 46.3471 13.9416 46.9971C13.2214 47.6456 12.5012 48.2941 11.781 48.9427C11.3819 49.3306 11.0041 49.7386 10.6476 50.1666C10.3352 50.6761 10.0632 51.1635 9.83181 51.6286C9.64015 52.0508 9.55296 52.5109 9.57023 53.0089C9.62871 53.5054 9.76816 53.9575 9.9886 54.3652C10.2517 54.8129 10.6149 55.1741 11.0783 55.4486C11.5417 55.7231 12.1023 55.8281 12.7602 55.7634C12.9649 55.7146 13.129 55.6881 13.2526 55.6838C13.4174 55.678 13.561 55.6521 13.6831 55.6063C14.6889 54.8646 15.4297 54.2154 15.9055 53.6586C16.3813 53.1017 16.8272 52.2759 17.2431 51.1811C17.5483 50.464 17.8109 49.707 18.0308 48.9099C18.2933 48.1528 18.5765 47.395 18.8803 46.6365C19.1059 46.0053 19.1248 45.3607 18.937 44.7026C18.8105 44.6239 18.6626 44.5253 18.4935 44.4066C18.3641 44.2449 18.2148 44.1048 18.0457 43.9861Z" fill="#1890FF"></path><path d="M46.4014 25.1656C46.7824 25.443 47.0611 25.7448 47.2374 26.071C47.4138 26.3971 47.4282 26.8121 47.2806 27.3159C47.1273 27.6536 46.8908 27.9735 46.5712 28.2756C46.2913 28.5347 45.9696 28.7745 45.6059 28.9951C44.5575 29.6967 43.6128 30.4154 42.7719 31.1513C40.6851 32.8449 39.1108 35.0399 38.049 37.7362L35.9986 42.8562C35.6181 43.7836 35.0187 44.3448 34.2002 44.5398C34.0383 44.6286 33.8742 44.6551 33.7079 44.6194C33.5004 44.5852 33.2936 44.5717 33.0876 44.5789C32.9184 44.4602 32.7493 44.3415 32.5801 44.2228C32.4095 44.0627 32.2603 43.9225 32.1323 43.8023C32.0868 43.6793 32.0626 43.5763 32.0597 43.4933C32.0156 43.4118 31.9921 43.3295 31.9892 43.2465C31.8268 42.1305 31.8504 41.0286 32.0603 39.9411C32.2687 38.812 32.519 37.7022 32.8113 36.6117C33.1007 35.4382 33.4114 34.2848 33.7434 33.1514C34.0754 32.0179 34.3861 30.8645 34.6755 29.691C34.7876 29.3547 34.8784 28.9983 34.9479 28.622C35.0571 28.2027 35.1465 27.8048 35.216 27.4285C35.2826 26.9691 35.3918 26.5498 35.5437 26.1706C35.7353 25.7484 36.0322 25.3848 36.4342 25.0798C37.0437 24.8091 37.6619 24.7874 38.2886 25.0146C38.6284 25.2935 38.9475 25.5731 39.2461 25.8534C39.5844 26.0908 39.9227 26.3282 40.261 26.5656C40.3463 26.6457 40.4515 26.7043 40.5766 26.7414C40.7428 26.7771 40.9304 26.8329 41.1394 26.9086C41.4618 26.6895 41.8056 26.4905 42.1708 26.3115C42.5771 26.131 42.9415 25.9312 43.264 25.7121C43.7485 25.4043 44.2365 25.2002 44.7281 25.0998C45.2595 24.9564 45.8173 24.9784 46.4014 25.1656Z" fill="#1890FF"></path><path d="M56.6183 24.557C57.2038 24.7857 57.6687 25.1018 58.0127 25.5051C58.3966 25.8655 58.7634 26.3304 59.1132 26.8998C59.2028 27.1044 59.274 27.3719 59.3267 27.7024C59.4207 28.0315 59.516 28.4021 59.6128 28.8141C59.5788 29.023 59.5455 29.2527 59.513 29.5031C59.4789 29.7121 59.4456 29.9417 59.4131 30.1922C59.4006 31.0235 59.2212 31.7985 58.8748 32.5169C58.5696 33.234 58.1393 33.9138 57.584 34.5565C57.1096 35.1549 56.5712 35.6931 55.9689 36.1713C55.3666 36.6495 54.7209 37.0669 54.0319 37.4235C53.6682 37.644 53.3038 37.8438 52.9386 38.0228C52.6147 38.2004 52.3363 38.501 52.1035 38.9247L52.1423 40.0451C52.991 40.7215 53.8408 40.837 54.6918 40.3917C54.7728 40.3473 54.8339 40.3243 54.8751 40.3229C54.9163 40.3214 54.9774 40.2985 55.0584 40.2541C56.2319 39.5897 57.3414 38.8651 58.387 38.0805C59.4737 37.2945 60.4318 36.3675 61.2612 35.2997L64.2842 31.4542C64.601 31.0692 64.9184 30.7049 65.2366 30.3613C65.596 30.0163 66.0421 29.7929 66.5749 29.6911C66.9928 29.8426 67.265 29.9576 67.3915 30.0363C67.518 30.1149 67.7945 30.3545 68.2209 30.7549L68.2814 32.4978C68.1252 32.7525 68.0286 32.9429 67.9917 33.0688C66.8571 34.8537 65.6159 36.5384 64.268 38.123C62.9599 39.6647 61.4833 41.1084 59.8383 42.4542C59.1153 43.0197 58.3268 43.4837 57.4729 43.8461C56.6588 44.1655 55.8248 44.5065 54.9709 44.8689C53.3282 45.0928 51.8169 44.9382 50.4368 44.4051C49.0568 43.872 48.0282 42.7656 47.351 41.086C47.1263 40.5538 47.0045 40.018 46.9858 39.4785C46.9245 38.8991 46.8837 38.3188 46.8636 37.7379C46.842 37.1155 46.8204 36.493 46.7988 35.8706C46.794 34.5413 47.0186 33.287 47.4729 32.1077C47.9257 30.8869 48.5462 29.7434 49.3344 28.677C50.1226 27.6106 51.0203 26.7273 52.0275 26.0272C52.7122 25.5461 53.4212 25.168 54.1543 24.893C54.886 24.5764 55.7073 24.4644 56.6183 24.557ZM51.8646 33.8229C52.2384 33.8928 52.6675 33.7739 53.152 33.466C53.6364 33.1581 54.076 32.748 54.4709 32.2355C54.8657 31.7231 55.1354 31.1735 55.2801 30.5868C55.4646 29.9571 55.4651 29.3754 55.2815 28.8418C54.9916 28.8104 54.6272 29.0102 54.1883 29.4411C53.7891 29.8291 53.4135 30.2993 53.0613 30.8518C52.7077 31.3628 52.3967 31.9138 52.1284 32.5049C51.8998 33.053 51.8119 33.4923 51.8646 33.8229Z" fill="#1890FF"></path><path d="M73.3999 23.9669C73.9855 24.1956 74.4503 24.5117 74.7944 24.915C75.1782 25.2754 75.5451 25.7403 75.8949 26.3097C75.9845 26.5143 76.0557 26.7818 76.1084 27.1123C76.2023 27.4414 76.2977 27.812 76.3945 28.224C76.3605 28.4329 76.3272 28.6626 76.2946 28.913C76.2606 29.122 76.2273 29.3517 76.1947 29.6021C76.1823 30.4334 76.0029 31.2084 75.6565 31.9268C75.3512 32.6439 74.921 33.3237 74.3656 33.9664C73.8913 34.5648 73.3529 35.103 72.7506 35.5812C72.1483 36.0594 71.5026 36.4768 70.8135 36.8334C70.4499 37.0539 70.0854 37.2537 69.7203 37.4327C69.3964 37.6103 69.118 37.9109 68.8851 38.3346L68.924 39.455C69.7726 40.1314 70.6225 40.2469 71.4735 39.8016C71.5545 39.7572 71.6156 39.7342 71.6568 39.7328C71.698 39.7313 71.7591 39.7084 71.8401 39.664C73.0135 38.9996 74.1231 38.275 75.1686 37.4904C76.2554 36.7044 77.2135 35.7774 78.0429 34.7096L81.0659 30.8641C81.3826 30.4791 81.7001 30.1148 82.0182 29.7712C82.3776 29.4262 82.8237 29.2028 83.3566 29.101C83.7744 29.2525 84.0466 29.3675 84.1731 29.4462C84.2996 29.5248 84.5761 29.7644 85.0026 30.1648L85.0631 31.9077C84.9069 32.1624 84.8103 32.3528 84.7734 32.4787C83.6388 34.2636 82.3975 35.9483 81.0496 37.5329C79.7415 39.0746 78.265 40.5183 76.62 41.8641C75.8969 42.4296 75.1084 42.8936 74.2545 43.256C73.4404 43.5754 72.6064 43.9164 71.7525 44.2788C70.1099 44.5027 68.5986 44.3481 67.2185 43.815C65.8384 43.2819 64.8098 42.1755 64.1327 40.4959C63.9079 39.9637 63.7862 39.4279 63.7675 38.8885C63.7061 38.309 63.6654 37.7287 63.6452 37.1478C63.6236 36.5254 63.6021 35.9029 63.5805 35.2805C63.5756 33.9512 63.8003 32.6969 64.2545 31.5176C64.7073 30.2968 65.3278 29.1533 66.116 28.0869C66.9043 27.0205 67.802 26.1372 68.8092 25.4371C69.4939 24.956 70.2029 24.5779 70.936 24.3029C71.6677 23.9863 72.489 23.8743 73.3999 23.9669ZM68.6463 33.2328C69.0201 33.3027 69.4492 33.1838 69.9336 32.8759C70.4181 32.568 70.8577 32.1579 71.2525 31.6455C71.6474 31.133 71.9171 30.5834 72.0618 29.9967C72.2463 29.367 72.2467 28.7853 72.0632 28.2517C71.7733 28.2203 71.4089 28.4201 70.9699 28.851C70.5708 29.239 70.1951 29.7092 69.843 30.2617C69.4893 30.7727 69.1784 31.3237 68.91 31.9148C68.6815 32.4629 68.5936 32.9022 68.6463 33.2328Z" fill="#1890FF"></path><path d="M88.7852 8.09531C89.031 8.04512 89.2363 8.01713 89.4012 8.01133C89.5646 7.96404 89.7081 7.93822 89.8317 7.93387C89.9553 7.92953 90.0797 7.94593 90.2048 7.98308C90.3284 7.97873 90.5146 7.99296 90.7633 8.02576C90.8485 8.10585 90.9346 8.20669 91.0213 8.32828C91.1492 8.44842 91.2353 8.54926 91.2794 8.6308C91.6364 9.40763 91.702 10.1116 91.4764 10.7427C91.3671 11.1621 91.2366 11.5613 91.0847 11.9406C90.9328 12.3199 90.7816 12.7199 90.6312 13.1406C90.441 13.6043 90.2713 14.0673 90.1223 14.5295C90.0131 14.9488 89.8634 15.3903 89.6732 15.854C89.8054 16.0987 89.9164 16.3233 90.006 16.5279C90.0941 16.6909 90.1823 16.854 90.2705 17.0171C90.6117 17.3375 90.9898 17.5319 91.4047 17.6004C91.8197 17.6689 92.2539 17.6952 92.7072 17.6793C93.6138 17.6474 94.5211 17.6363 95.4292 17.6459C96.3358 17.614 97.2417 17.5614 98.1468 17.488C98.4765 17.4764 98.7664 17.5078 99.0166 17.5821C99.2667 17.6563 99.5374 17.7299 99.8288 17.8028C100.375 18.0744 100.779 18.4341 101.042 18.8819C101.405 19.8247 101.04 20.6061 99.9475 21.2262C99.6605 21.2778 99.3529 21.3302 99.0246 21.3833C98.6949 21.3949 98.3652 21.4065 98.0356 21.418L90.8651 21.6702C90.2057 21.6934 89.6722 21.7744 89.2644 21.9134C88.8964 22.0095 88.3686 22.2565 87.681 22.6546C87.2464 23.21 86.9368 23.8025 86.7524 24.4322C86.5679 25.0619 86.4254 25.7109 86.3248 26.3792C86.1489 27.2578 86.0151 28.1558 85.9231 29.073C85.8311 29.9903 85.6972 30.8882 85.5214 31.7669C85.381 32.4781 85.3017 33.1664 85.2835 33.8318C85.3051 34.4543 85.3068 35.0982 85.2887 35.7635C85.303 36.1785 85.3785 36.5705 85.5151 36.9397C85.6915 37.2658 85.9907 37.5669 86.4129 37.8429L87.6492 37.7994C87.7699 37.7121 87.8907 37.6247 88.0114 37.5374C88.172 37.4071 88.2905 37.2575 88.3672 37.0886C89.0375 36.1926 89.6873 35.2973 90.3164 34.4027C90.9853 33.4651 91.655 32.5483 92.3253 31.6523C92.6008 31.2687 92.877 30.9058 93.154 30.5637C93.4295 30.1801 93.7889 29.8351 94.2321 29.5287L95.6539 29.4787C96.0319 29.6731 96.3084 29.9127 96.4833 30.1974C96.6583 30.482 96.8133 30.7882 96.9484 31.1158C96.8732 31.3262 96.7994 31.5781 96.7271 31.8714C96.6945 32.1219 96.6001 32.3745 96.4439 32.6292C95.5421 33.9904 94.661 35.3509 93.8004 36.7106C92.9811 38.0689 91.994 39.35 90.8392 40.5539C90.6403 40.7687 90.4216 41.0049 90.183 41.2625C89.9841 41.4773 89.7647 41.6927 89.5246 41.9089C89.2845 42.1251 89.0239 42.342 88.7426 42.5596C88.4613 42.7772 88.1801 42.9948 87.8988 43.2124C87.5308 43.3085 87.1834 43.4038 86.8566 43.4984C86.5298 43.593 86.203 43.6875 85.8762 43.7821C84.924 43.691 84.1708 43.3851 83.6163 42.8645C83.1017 42.3009 82.6658 41.6307 82.3088 40.8539C82.2149 40.5248 82.1217 40.2165 82.0292 39.9289C81.8955 39.6428 81.8022 39.3345 81.7495 39.004C81.6072 38.4689 81.5061 37.9323 81.4461 37.3943C81.345 36.8578 81.2432 36.3005 81.1406 35.7224C81.0452 35.3519 81.033 34.9992 81.1039 34.6643C81.342 33.2018 81.5183 31.7415 81.6328 30.2833C81.7472 28.8252 81.9853 27.3627 82.3471 25.8958C82.4151 25.478 82.4419 25.0616 82.4275 24.6466C82.4529 24.1887 82.4157 23.7122 82.3161 23.2172C82.0204 23.0198 81.7432 22.7595 81.4844 22.4363C80.8619 22.3335 80.263 22.313 79.6875 22.3748C79.0693 22.3966 78.4718 22.4176 77.8949 22.4379C77.0707 22.4668 76.3849 22.3248 75.8377 22.0116C75.7112 21.933 75.6053 21.8536 75.52 21.7735C75.3921 21.6534 75.2648 21.554 75.1383 21.4753L75.08 19.7948C75.2789 19.58 75.4586 19.4075 75.6191 19.2773C75.7782 19.1055 75.9571 18.9122 76.156 18.6975C77.1009 18.5812 78.0459 18.4649 78.9908 18.3485C79.8946 18.2337 80.8203 18.1596 81.7682 18.1262C83.3725 17.9867 84.482 17.2622 85.0967 15.9526C85.4063 15.3601 85.6753 14.7898 85.9038 14.2416C86.131 13.652 86.3787 13.0616 86.647 12.4706C86.8372 12.0069 87.0267 11.5224 87.2155 11.0172C87.4455 10.5106 87.6556 10.0254 87.8458 9.5617C87.9608 9.30837 88.0971 9.07508 88.2548 8.8618C88.4522 8.60558 88.629 8.35008 88.7852 8.09531Z" fill="#1890FF"></path><path d="M101.893 22.965C102.478 23.1937 102.943 23.5098 103.287 23.9131C103.671 24.2736 104.038 24.7384 104.388 25.3078C104.477 25.5124 104.548 25.7799 104.601 26.1104C104.695 26.4395 104.79 26.8101 104.887 27.2221C104.853 27.4311 104.82 27.6607 104.787 27.9112C104.753 28.1201 104.72 28.3498 104.687 28.6002C104.675 29.4315 104.495 30.2065 104.149 30.9249C103.844 31.642 103.414 32.3218 102.858 32.9646C102.384 33.5629 101.846 34.1011 101.243 34.5793C100.641 35.0575 99.9952 35.4749 99.3062 35.8315C98.9425 36.052 98.578 36.2518 98.2129 36.4308C97.889 36.6084 97.6106 36.909 97.3777 37.3327L97.4166 38.4531C98.2653 39.1295 99.1151 39.2451 99.9661 38.7997C100.047 38.7553 100.108 38.7323 100.149 38.7309C100.191 38.7294 100.252 38.7065 100.333 38.6621C101.506 37.9977 102.616 37.2731 103.661 36.4885C104.748 35.7025 105.706 34.7756 106.536 33.7077L109.559 29.8622C109.875 29.4772 110.193 29.1129 110.511 28.7693C110.87 28.4243 111.316 28.2009 111.849 28.0991C112.267 28.2506 112.539 28.3656 112.666 28.4443C112.792 28.5229 113.069 28.7625 113.495 29.1629L113.556 30.9058C113.399 31.1605 113.303 31.3509 113.266 31.4768C112.131 33.2617 110.89 34.9464 109.542 36.531C108.234 38.0727 106.758 39.5164 105.113 40.8622C104.39 41.4277 103.601 41.8917 102.747 42.2541C101.933 42.5735 101.099 42.9145 100.245 43.2769C98.6025 43.5008 97.0912 43.3462 95.7111 42.8131C94.331 42.28 93.3024 41.1736 92.6253 39.494C92.4005 38.9618 92.2788 38.426 92.2601 37.8866C92.1987 37.3071 92.158 36.7268 92.1378 36.1459C92.1163 35.5235 92.0947 34.901 92.0731 34.2786C92.0682 32.9493 92.2929 31.695 92.7472 30.5157C93.1999 29.2949 93.8204 28.1514 94.6087 27.085C95.3969 26.0186 96.2946 25.1353 97.3018 24.4352C97.9865 23.9541 98.6955 23.576 99.4286 23.301C100.16 22.9844 100.982 22.8724 101.893 22.965ZM97.1389 32.2309C97.5127 32.3008 97.9418 32.1819 98.4262 31.874C98.9107 31.5661 99.3503 31.156 99.7451 30.6436C100.14 30.1311 100.41 29.5815 100.554 28.9948C100.739 28.3651 100.739 27.7834 100.556 27.2498C100.266 27.2184 99.9015 27.4182 99.4626 27.8491C99.0634 28.2371 98.6878 28.7073 98.3356 29.2598C97.982 29.7708 97.671 30.3218 97.4027 30.9129C97.1741 31.461 97.0862 31.9004 97.1389 32.2309Z" fill="#1890FF"></path><path d="M131.143 1C131.391 1.0328 131.639 1.04485 131.887 1.03616C132.175 1.02602 132.444 1.03735 132.692 1.07015C133.628 1.86819 133.993 2.89399 133.789 4.14756C133.584 5.35963 133.378 6.55096 133.171 7.72154C132.962 8.85062 132.734 10.0012 132.486 11.1732C132.344 11.8429 132.182 12.5134 131.998 13.1846C131.855 13.8128 131.671 14.4425 131.445 15.0736C131.029 16.1684 130.717 17.2804 130.509 18.4095C130.3 19.5386 130.093 20.6884 129.886 21.859C129.647 23.3215 129.451 24.8033 129.297 26.3044C129.143 27.8055 128.927 29.3087 128.649 30.8142C128.509 31.5254 128.41 32.2559 128.354 33.0057C128.338 33.7541 128.302 34.4825 128.244 35.1908C128.177 35.6501 128.13 36.088 128.104 36.5044C128.117 36.8779 128.09 37.2943 128.023 37.7537C127.891 38.7139 127.802 39.6933 127.754 40.6921C127.706 41.6909 127.657 42.669 127.608 43.6263C127.615 43.8338 127.602 44.042 127.568 44.2509C127.534 44.4598 127.52 44.668 127.527 44.8755C127.404 46.0847 127.362 47.2495 127.401 48.3699C127.481 49.4888 127.849 50.5769 128.505 51.634C128.722 51.9587 128.836 52.2663 128.846 52.5568C128.897 52.8458 128.887 53.1578 128.817 53.4926C128.318 54.5904 127.466 54.9942 126.259 54.7043C125.378 54.2783 124.759 53.6769 124.402 52.9C124.087 52.1632 123.875 51.3813 123.763 50.5543C123.652 49.7273 123.583 48.9196 123.556 48.1312C123.528 47.3427 123.603 46.53 123.78 45.6928C123.856 45.4824 123.869 45.2742 123.821 45.0682C123.772 44.8621 123.765 44.6547 123.799 44.4457C123.853 43.6129 123.866 42.8023 123.839 42.0139C123.811 41.2255 123.866 40.4134 124.002 39.5777C124.211 38.4901 124.19 37.2653 123.936 35.9031C123.598 35.6658 123.364 35.4662 123.235 35.3046C122.743 35.405 122.357 35.5847 122.077 35.8439C121.839 36.1015 121.602 36.4007 121.366 36.7414C120.97 37.2123 120.574 37.704 120.179 38.2164C119.826 38.7274 119.43 39.2191 118.993 39.6915C118.082 40.8037 116.981 41.7772 115.69 42.612C114.923 43.096 114.132 43.4977 113.318 43.8172C112.544 44.0937 111.703 44.2479 110.797 44.2798C108.733 44.2692 107.143 43.6396 106.027 42.3909C105.939 42.2278 105.874 42.1263 105.831 42.0862C105.787 42.0047 105.743 41.9231 105.699 41.8416C105.249 40.7772 105.13 39.7219 105.342 38.6758C105.51 37.5897 105.783 36.5415 106.161 35.5311C106.65 34.1844 107.268 32.9578 108.014 31.8514C108.758 30.7034 109.587 29.6149 110.5 28.5856C111.135 27.857 111.792 27.1692 112.471 26.5221C113.15 25.875 113.893 25.288 114.699 24.7611C115.749 24.101 116.808 23.6899 117.875 23.5277C118.983 23.3641 120.124 23.5317 121.296 24.0306C122.676 24.5637 123.715 24.174 124.412 22.8616C125.73 20.4056 126.612 17.8818 127.058 15.2902C127.369 13.5343 127.742 11.797 128.177 10.0783C128.611 8.31809 128.984 6.56005 129.294 4.80418C129.365 4.46931 129.436 4.13445 129.507 3.79959C129.618 3.42178 129.729 3.06472 129.841 2.7284C129.955 2.43358 130.089 2.15879 130.246 1.90402C130.442 1.6063 130.741 1.30496 131.143 1ZM119.431 29.1441C119.303 29.0239 119.155 28.9045 118.986 28.7858C118.815 28.6256 118.666 28.4855 118.538 28.3653C117.832 28.224 117.235 28.2657 116.747 28.4906C116.26 28.7155 115.797 29.0433 115.358 29.4742C114.278 30.4678 113.306 31.5614 112.439 32.7552C111.573 33.9489 110.792 35.2228 110.096 36.5768C109.67 37.3811 109.617 38.2139 109.935 39.0752C110.021 39.1553 110.107 39.2561 110.193 39.3777C110.237 39.4593 110.323 39.5394 110.449 39.618C110.618 39.7367 110.849 39.8325 111.14 39.9053C111.957 39.6688 112.548 39.4611 112.913 39.2821C113.318 39.0601 113.758 38.6707 114.234 38.1139C115.03 37.255 115.804 36.3761 116.556 35.4771C117.308 34.5367 118.059 33.5962 118.81 32.6558C119.682 31.628 119.889 30.4574 119.431 29.1441Z" fill="#1890FF"></path><path fill-rule="evenodd" clip-rule="evenodd" d="M67.4878 56.784C52.1124 58.3854 37.3664 61.9476 28.3644 64.9109C27.3152 65.2562 26.1847 64.6857 25.8393 63.6365C25.494 62.5873 26.0645 61.4568 27.1137 61.1114C36.3729 58.0635 51.399 54.438 67.0734 52.8055C82.6809 51.18 99.2629 51.4922 111.429 56.5957C112.447 57.023 112.927 58.1951 112.499 59.2137C112.072 60.2322 110.9 60.7116 109.881 60.2843C98.6754 55.5834 82.9301 55.1757 67.4878 56.784Z" fill="#1890FF"></path></svg> 